Coordinates
version=1
nRows=10
nColumns=22
inDegrees=yes

Units are S.I. units (second, meters, Newtons, ...)
If the header above contains a line with 'inDegrees', this indicates whether rotational values are in degrees (yes) or radians (no).

endheader
time	pelvis_tilt	pelvis_list	pelvis_rotation	pelvis_tx	pelvis_ty	pelvis_tz	hip_flexion_r	hip_adduction_r	hip_rotation_r	knee_angle_r	ankle_angle_r	subtalar_angle_r	hip_flexion_l	hip_adduction_l	hip_rotation_l	knee_angle_l	ankle_angle_l	subtalar_angle_l	lumbar_extension	lumbar_bending	lumbar_rotation
      0.01000000	     -1.12112676	     -3.93595391	     -7.47839478	     -1.43388016	      1.02358835	     -0.35723490	      2.11061728	      6.25894650	     -2.03568590	     -9.84207291	      8.54148302	     -4.54225627	      2.71611587	     -3.78817064	     -8.65916478	    -11.17520937	     11.48185973	     -1.87728227	     -8.02147992	      3.31512759	      0.70690887
      0.02000000	     -1.10263596	     -3.94780345	     -7.38988470	     -1.43400875	      1.02359999	     -0.35745689	      2.10106677	      6.26215968	     -2.10795878	     -9.84361278	      8.53278162	     -4.56738108	      2.74075041	     -3.79308843	     -8.55770793	    -11.21817885	     11.48947424	     -1.88326047	     -8.04682390	      3.33610997	      0.62546180
      0.03000000	     -1.08182046	     -3.93846803	     -7.31740444	     -1.43413415	      1.02361489	     -0.35766946	      2.10796188	      6.24116204	     -2.17536113	     -9.87820881	      8.55085475	     -4.58250179	      2.74832482	     -3.77145411	     -8.46103762	    -11.23256956	     11.48318132	     -1.89070978	     -8.06954684	      3.32851754	      0.57609502
      0.04000000	     -1.05696302	     -3.93023314	     -7.24239269	     -1.43423160	      1.02363541	     -0.35788770	      2.10520121	      6.22077899	     -2.23769487	     -9.90588542	      8.56956777	     -4.59187450	      2.74802054	     -3.74994112	     -8.36797070	    -11.24340078	     11.47348893	     -1.90026939	     -8.09145433	      3.32216750	      0.52242782
      0.05000000	     -1.02706168	     -3.92025931	     -7.17022222	     -1.43431620	      1.02366711	     -0.35810024	      2.09765549	      6.19801918	     -2.29377723	     -9.93647228	      8.58765180	     -4.59753132	      2.73466584	     -3.72500726	     -8.28061009	    -11.24084586	     11.46259837	     -1.91003818	     -8.11930672	      3.31196710	      0.47753353
      0.06000000	     -0.99294136	     -3.91028270	     -7.10188864	     -1.43435811	      1.02370769	     -0.35829842	      2.08012820	      6.17522318	     -2.34834113	     -9.96158375	      8.60605092	     -4.60055419	      2.70669289	     -3.69922028	     -8.20101817	    -11.22662999	     11.44754557	     -1.92027328	     -8.14646681	      3.30049386	      0.43391134
      0.07000000	     -0.96712766	     -3.90511388	     -7.05447342	     -1.43440209	      1.02373817	     -0.35846456	      2.07688188	      6.16016437	     -2.36354274	    -10.00080044	      8.60996802	     -4.60117392	      2.68373492	     -3.68144672	     -8.15569877	    -11.21270477	     11.44123543	     -1.92385218	     -8.16673803	      3.29579392	      0.40673470
      0.08000000	     -0.93605536	     -3.88922587	     -6.98279396	     -1.43436867	      1.02377843	     -0.35866944	      2.04991092	      6.12946625	     -2.44504120	    -10.00883106	      8.63848369	     -4.60173527	      2.63790547	     -3.64586778	     -8.07785894	    -11.16234061	     11.42188101	     -1.92972602	     -8.18096133	      3.27972809	      0.36561901
      0.09000000	     -0.92985721	     -3.89002068	     -6.94916685	     -1.43437622	      1.02378320	     -0.35880496	      2.04951493	      6.12531116	     -2.44026813	    -10.01815215	      8.63758833	     -4.60175706	      2.63416149	     -3.64062636	     -8.08058909	    -11.15669070	     11.42088048	     -1.93027544	     -8.17734505	      3.28448584	      0.36956978
      0.10000000	     -0.88373676	     -3.86618287	     -6.85348895	     -1.43436110	      1.02385126	     -0.35906104	      2.01589040	      6.08094755	     -2.56500529	    -10.03894177	      8.66360721	     -4.59851661	      2.56909111	     -3.58934200	     -7.95527785	    -11.08926023	     11.37265312	     -1.94096535	     -8.21841172	      3.26344198	      0.28607688
